M48
;DRILL file {KiCad 4.0.7} date 09/28/17 16:14:31
;FORMAT={-:-/ absolute / inch / decimal}
FMAT,2
INCH,TZ
T1C0.020
%
G90
G05
M72
T1
X5.46Y-4.13
X5.46Y-4.1694
X5.46Y-4.6
X5.46Y-4.6394
X5.46Y-5.07
X5.46Y-5.1094
X5.96Y-4.35
X5.96Y-4.82
X5.96Y-5.29
X6.32Y-4.13
X6.32Y-4.1694
X6.32Y-4.6
X6.32Y-4.6394
X6.32Y-5.07
X6.32Y-5.1094
X6.82Y-4.35
X6.82Y-4.82
X6.82Y-5.29
X7.18Y-4.13
X7.18Y-4.1694
X7.18Y-4.6
X7.18Y-4.6394
X7.18Y-5.07
X7.18Y-5.1094
X7.68Y-4.35
X7.68Y-4.82
X7.68Y-5.29
T0
M30
