G04 #@! TF.FileFunction,Copper,L1,Top,Signal*
%FSLAX46Y46*%
G04 Gerber Fmt 4.6, Leading zero omitted, Abs format (unit mm)*
G04 Created by KiCad (PCBNEW 4.0.7) date 09/28/17 16:14:06*
%MOMM*%
%LPD*%
G01*
G04 APERTURE LIST*
%ADD10C,0.100000*%
%ADD11R,2.200000X2.100000*%
%ADD12R,1.300000X2.100000*%
%ADD13R,1.700000X0.900000*%
%ADD14R,0.900000X1.700000*%
%ADD15R,0.850000X0.850000*%
%ADD16O,0.850000X0.850000*%
%ADD17C,2.000000*%
%ADD18C,0.250000*%
G04 APERTURE END LIST*
D10*
D11*
X186068000Y-129794000D03*
D12*
X188328000Y-129794000D03*
D13*
X195072000Y-128090000D03*
X195072000Y-130990000D03*
D14*
X188648000Y-134366000D03*
X185748000Y-134366000D03*
D13*
X191770000Y-130990000D03*
X191770000Y-128090000D03*
D15*
X182372000Y-128778000D03*
D16*
X182372000Y-129778000D03*
D15*
X195072000Y-134366000D03*
D17*
X181102000Y-134874000D03*
X198120000Y-127254000D03*
X198120000Y-115316000D03*
X181102000Y-122936000D03*
D15*
X195072000Y-122428000D03*
X182372000Y-116840000D03*
D16*
X182372000Y-117840000D03*
D13*
X191770000Y-119052000D03*
X191770000Y-116152000D03*
D14*
X188648000Y-122428000D03*
X185748000Y-122428000D03*
D13*
X195072000Y-116152000D03*
X195072000Y-119052000D03*
D11*
X186068000Y-117856000D03*
D12*
X188328000Y-117856000D03*
D11*
X186068000Y-105918000D03*
D12*
X188328000Y-105918000D03*
D13*
X195072000Y-104214000D03*
X195072000Y-107114000D03*
D14*
X188648000Y-110490000D03*
X185748000Y-110490000D03*
D13*
X191770000Y-107114000D03*
X191770000Y-104214000D03*
D15*
X182372000Y-104902000D03*
D16*
X182372000Y-105902000D03*
D15*
X195072000Y-110490000D03*
D17*
X181102000Y-110998000D03*
X198120000Y-103378000D03*
X176276000Y-103378000D03*
X159258000Y-110998000D03*
D15*
X173228000Y-110490000D03*
X160528000Y-104902000D03*
D16*
X160528000Y-105902000D03*
D13*
X169926000Y-107114000D03*
X169926000Y-104214000D03*
D14*
X166804000Y-110490000D03*
X163904000Y-110490000D03*
D13*
X173228000Y-104214000D03*
X173228000Y-107114000D03*
D11*
X164224000Y-105918000D03*
D12*
X166484000Y-105918000D03*
D11*
X164224000Y-117856000D03*
D12*
X166484000Y-117856000D03*
D13*
X173228000Y-116152000D03*
X173228000Y-119052000D03*
D14*
X166804000Y-122428000D03*
X163904000Y-122428000D03*
D13*
X169926000Y-119052000D03*
X169926000Y-116152000D03*
D15*
X160528000Y-116840000D03*
D16*
X160528000Y-117840000D03*
D15*
X173228000Y-122428000D03*
D17*
X159258000Y-122936000D03*
X176276000Y-115316000D03*
X176276000Y-127254000D03*
X159258000Y-134874000D03*
D15*
X173228000Y-134366000D03*
X160528000Y-128778000D03*
D16*
X160528000Y-129778000D03*
D13*
X169926000Y-130990000D03*
X169926000Y-128090000D03*
D14*
X166804000Y-134366000D03*
X163904000Y-134366000D03*
D13*
X173228000Y-128090000D03*
X173228000Y-130990000D03*
D11*
X164224000Y-129794000D03*
D12*
X166484000Y-129794000D03*
D11*
X142380000Y-129794000D03*
D12*
X144640000Y-129794000D03*
D13*
X151384000Y-128090000D03*
X151384000Y-130990000D03*
D14*
X144960000Y-134366000D03*
X142060000Y-134366000D03*
D13*
X148082000Y-130990000D03*
X148082000Y-128090000D03*
D15*
X138684000Y-128778000D03*
D16*
X138684000Y-129778000D03*
D15*
X151384000Y-134366000D03*
D17*
X137414000Y-134874000D03*
X154432000Y-127254000D03*
X154432000Y-115316000D03*
X137414000Y-122936000D03*
D15*
X151384000Y-122428000D03*
X138684000Y-116840000D03*
D16*
X138684000Y-117840000D03*
D13*
X148082000Y-119052000D03*
X148082000Y-116152000D03*
D14*
X144960000Y-122428000D03*
X142060000Y-122428000D03*
D13*
X151384000Y-116152000D03*
X151384000Y-119052000D03*
D11*
X142380000Y-117856000D03*
D12*
X144640000Y-117856000D03*
D11*
X142380000Y-105918000D03*
D12*
X144640000Y-105918000D03*
D13*
X151384000Y-104214000D03*
X151384000Y-107114000D03*
D14*
X144960000Y-110490000D03*
X142060000Y-110490000D03*
D13*
X148082000Y-107114000D03*
X148082000Y-104214000D03*
D15*
X138684000Y-104902000D03*
D16*
X138684000Y-105902000D03*
D15*
X151384000Y-110490000D03*
D17*
X137414000Y-110998000D03*
X154432000Y-103378000D03*
D18*
X182372000Y-129778000D02*
X182372000Y-130990000D01*
X182372000Y-130990000D02*
X185748000Y-134366000D01*
X186068000Y-129794000D02*
X186182000Y-129794000D01*
X186182000Y-129794000D02*
X185674000Y-130302000D01*
X185674000Y-130302000D02*
X185674000Y-134366000D01*
X185674000Y-134366000D02*
X185748000Y-134366000D01*
X186068000Y-129794000D02*
X182372000Y-129794000D01*
X182372000Y-129794000D02*
X182372000Y-129778000D01*
X182372000Y-129778000D02*
X182372000Y-129974000D01*
X186068000Y-134046000D02*
X185748000Y-134366000D01*
X186052000Y-129778000D02*
X186068000Y-129794000D01*
X186052000Y-117840000D02*
X186068000Y-117856000D01*
X186068000Y-122108000D02*
X185748000Y-122428000D01*
X182372000Y-117840000D02*
X182372000Y-118036000D01*
X182372000Y-117856000D02*
X182372000Y-117840000D01*
X186068000Y-117856000D02*
X182372000Y-117856000D01*
X185674000Y-122428000D02*
X185748000Y-122428000D01*
X185674000Y-118364000D02*
X185674000Y-122428000D01*
X186182000Y-117856000D02*
X185674000Y-118364000D01*
X186068000Y-117856000D02*
X186182000Y-117856000D01*
X182372000Y-119052000D02*
X185748000Y-122428000D01*
X182372000Y-117840000D02*
X182372000Y-119052000D01*
X182372000Y-105902000D02*
X182372000Y-107114000D01*
X182372000Y-107114000D02*
X185748000Y-110490000D01*
X186068000Y-105918000D02*
X186182000Y-105918000D01*
X186182000Y-105918000D02*
X185674000Y-106426000D01*
X185674000Y-106426000D02*
X185674000Y-110490000D01*
X185674000Y-110490000D02*
X185748000Y-110490000D01*
X186068000Y-105918000D02*
X182372000Y-105918000D01*
X182372000Y-105918000D02*
X182372000Y-105902000D01*
X182372000Y-105902000D02*
X182372000Y-106098000D01*
X186068000Y-110170000D02*
X185748000Y-110490000D01*
X186052000Y-105902000D02*
X186068000Y-105918000D01*
X164208000Y-105902000D02*
X164224000Y-105918000D01*
X164224000Y-110170000D02*
X163904000Y-110490000D01*
X160528000Y-105902000D02*
X160528000Y-106098000D01*
X160528000Y-105918000D02*
X160528000Y-105902000D01*
X164224000Y-105918000D02*
X160528000Y-105918000D01*
X163830000Y-110490000D02*
X163904000Y-110490000D01*
X163830000Y-106426000D02*
X163830000Y-110490000D01*
X164338000Y-105918000D02*
X163830000Y-106426000D01*
X164224000Y-105918000D02*
X164338000Y-105918000D01*
X160528000Y-107114000D02*
X163904000Y-110490000D01*
X160528000Y-105902000D02*
X160528000Y-107114000D01*
X160528000Y-117840000D02*
X160528000Y-119052000D01*
X160528000Y-119052000D02*
X163904000Y-122428000D01*
X164224000Y-117856000D02*
X164338000Y-117856000D01*
X164338000Y-117856000D02*
X163830000Y-118364000D01*
X163830000Y-118364000D02*
X163830000Y-122428000D01*
X163830000Y-122428000D02*
X163904000Y-122428000D01*
X164224000Y-117856000D02*
X160528000Y-117856000D01*
X160528000Y-117856000D02*
X160528000Y-117840000D01*
X160528000Y-117840000D02*
X160528000Y-118036000D01*
X164224000Y-122108000D02*
X163904000Y-122428000D01*
X164208000Y-117840000D02*
X164224000Y-117856000D01*
X164208000Y-129778000D02*
X164224000Y-129794000D01*
X164224000Y-134046000D02*
X163904000Y-134366000D01*
X160528000Y-129778000D02*
X160528000Y-129974000D01*
X160528000Y-129794000D02*
X160528000Y-129778000D01*
X164224000Y-129794000D02*
X160528000Y-129794000D01*
X163830000Y-134366000D02*
X163904000Y-134366000D01*
X163830000Y-130302000D02*
X163830000Y-134366000D01*
X164338000Y-129794000D02*
X163830000Y-130302000D01*
X164224000Y-129794000D02*
X164338000Y-129794000D01*
X160528000Y-130990000D02*
X163904000Y-134366000D01*
X160528000Y-129778000D02*
X160528000Y-130990000D01*
X138684000Y-129778000D02*
X138684000Y-130990000D01*
X138684000Y-130990000D02*
X142060000Y-134366000D01*
X142380000Y-129794000D02*
X142494000Y-129794000D01*
X142494000Y-129794000D02*
X141986000Y-130302000D01*
X141986000Y-130302000D02*
X141986000Y-134366000D01*
X141986000Y-134366000D02*
X142060000Y-134366000D01*
X142380000Y-129794000D02*
X138684000Y-129794000D01*
X138684000Y-129794000D02*
X138684000Y-129778000D01*
X138684000Y-129778000D02*
X138684000Y-129974000D01*
X142380000Y-134046000D02*
X142060000Y-134366000D01*
X142364000Y-129778000D02*
X142380000Y-129794000D01*
X142364000Y-117840000D02*
X142380000Y-117856000D01*
X142380000Y-122108000D02*
X142060000Y-122428000D01*
X138684000Y-117840000D02*
X138684000Y-118036000D01*
X138684000Y-117856000D02*
X138684000Y-117840000D01*
X142380000Y-117856000D02*
X138684000Y-117856000D01*
X141986000Y-122428000D02*
X142060000Y-122428000D01*
X141986000Y-118364000D02*
X141986000Y-122428000D01*
X142494000Y-117856000D02*
X141986000Y-118364000D01*
X142380000Y-117856000D02*
X142494000Y-117856000D01*
X138684000Y-119052000D02*
X142060000Y-122428000D01*
X138684000Y-117840000D02*
X138684000Y-119052000D01*
X138684000Y-105902000D02*
X138684000Y-107114000D01*
X138684000Y-107114000D02*
X142060000Y-110490000D01*
X142380000Y-105918000D02*
X142494000Y-105918000D01*
X142494000Y-105918000D02*
X141986000Y-106426000D01*
X141986000Y-106426000D02*
X141986000Y-110490000D01*
X141986000Y-110490000D02*
X142060000Y-110490000D01*
X142380000Y-105918000D02*
X138684000Y-105918000D01*
X138684000Y-105918000D02*
X138684000Y-105902000D01*
X138684000Y-105902000D02*
X138684000Y-106098000D01*
X142380000Y-110170000D02*
X142060000Y-110490000D01*
X142364000Y-105902000D02*
X142380000Y-105918000D01*
X188328000Y-129794000D02*
X190500000Y-129794000D01*
X190500000Y-129794000D02*
X191770000Y-131064000D01*
X191770000Y-131064000D02*
X191770000Y-130990000D01*
X191770000Y-119126000D02*
X191770000Y-119052000D01*
X190500000Y-117856000D02*
X191770000Y-119126000D01*
X188328000Y-117856000D02*
X190500000Y-117856000D01*
X188328000Y-105918000D02*
X190500000Y-105918000D01*
X190500000Y-105918000D02*
X191770000Y-107188000D01*
X191770000Y-107188000D02*
X191770000Y-107114000D01*
X169926000Y-107188000D02*
X169926000Y-107114000D01*
X168656000Y-105918000D02*
X169926000Y-107188000D01*
X166484000Y-105918000D02*
X168656000Y-105918000D01*
X166484000Y-117856000D02*
X168656000Y-117856000D01*
X168656000Y-117856000D02*
X169926000Y-119126000D01*
X169926000Y-119126000D02*
X169926000Y-119052000D01*
X169926000Y-131064000D02*
X169926000Y-130990000D01*
X168656000Y-129794000D02*
X169926000Y-131064000D01*
X166484000Y-129794000D02*
X168656000Y-129794000D01*
X144640000Y-129794000D02*
X146812000Y-129794000D01*
X146812000Y-129794000D02*
X148082000Y-131064000D01*
X148082000Y-131064000D02*
X148082000Y-130990000D01*
X148082000Y-119126000D02*
X148082000Y-119052000D01*
X146812000Y-117856000D02*
X148082000Y-119126000D01*
X144640000Y-117856000D02*
X146812000Y-117856000D01*
X144640000Y-105918000D02*
X146812000Y-105918000D01*
X146812000Y-105918000D02*
X148082000Y-107188000D01*
X148082000Y-107188000D02*
X148082000Y-107114000D01*
X182372000Y-128778000D02*
X182372000Y-127762000D01*
X191188000Y-127508000D02*
X191770000Y-128090000D01*
X182626000Y-127508000D02*
X191188000Y-127508000D01*
X182372000Y-127762000D02*
X182626000Y-127508000D01*
X191770000Y-128090000D02*
X191770000Y-128016000D01*
X195072000Y-128090000D02*
X195072000Y-128016000D01*
X195072000Y-128016000D02*
X191770000Y-128016000D01*
X191770000Y-128016000D02*
X191770000Y-128090000D01*
X182372000Y-128778000D02*
X182372000Y-128524000D01*
X191516000Y-127836000D02*
X191770000Y-128090000D01*
X191516000Y-115898000D02*
X191770000Y-116152000D01*
X182372000Y-116840000D02*
X182372000Y-116586000D01*
X191770000Y-116078000D02*
X191770000Y-116152000D01*
X195072000Y-116078000D02*
X191770000Y-116078000D01*
X195072000Y-116152000D02*
X195072000Y-116078000D01*
X191770000Y-116152000D02*
X191770000Y-116078000D01*
X182372000Y-115824000D02*
X182626000Y-115570000D01*
X182626000Y-115570000D02*
X191188000Y-115570000D01*
X191188000Y-115570000D02*
X191770000Y-116152000D01*
X182372000Y-116840000D02*
X182372000Y-115824000D01*
X182372000Y-104902000D02*
X182372000Y-103886000D01*
X191188000Y-103632000D02*
X191770000Y-104214000D01*
X182626000Y-103632000D02*
X191188000Y-103632000D01*
X182372000Y-103886000D02*
X182626000Y-103632000D01*
X191770000Y-104214000D02*
X191770000Y-104140000D01*
X195072000Y-104214000D02*
X195072000Y-104140000D01*
X195072000Y-104140000D02*
X191770000Y-104140000D01*
X191770000Y-104140000D02*
X191770000Y-104214000D01*
X182372000Y-104902000D02*
X182372000Y-104648000D01*
X191516000Y-103960000D02*
X191770000Y-104214000D01*
X169672000Y-103960000D02*
X169926000Y-104214000D01*
X160528000Y-104902000D02*
X160528000Y-104648000D01*
X169926000Y-104140000D02*
X169926000Y-104214000D01*
X173228000Y-104140000D02*
X169926000Y-104140000D01*
X173228000Y-104214000D02*
X173228000Y-104140000D01*
X169926000Y-104214000D02*
X169926000Y-104140000D01*
X160528000Y-103886000D02*
X160782000Y-103632000D01*
X160782000Y-103632000D02*
X169344000Y-103632000D01*
X169344000Y-103632000D02*
X169926000Y-104214000D01*
X160528000Y-104902000D02*
X160528000Y-103886000D01*
X160528000Y-116840000D02*
X160528000Y-115824000D01*
X169344000Y-115570000D02*
X169926000Y-116152000D01*
X160782000Y-115570000D02*
X169344000Y-115570000D01*
X160528000Y-115824000D02*
X160782000Y-115570000D01*
X169926000Y-116152000D02*
X169926000Y-116078000D01*
X173228000Y-116152000D02*
X173228000Y-116078000D01*
X173228000Y-116078000D02*
X169926000Y-116078000D01*
X169926000Y-116078000D02*
X169926000Y-116152000D01*
X160528000Y-116840000D02*
X160528000Y-116586000D01*
X169672000Y-115898000D02*
X169926000Y-116152000D01*
X169672000Y-127836000D02*
X169926000Y-128090000D01*
X160528000Y-128778000D02*
X160528000Y-128524000D01*
X169926000Y-128016000D02*
X169926000Y-128090000D01*
X173228000Y-128016000D02*
X169926000Y-128016000D01*
X173228000Y-128090000D02*
X173228000Y-128016000D01*
X169926000Y-128090000D02*
X169926000Y-128016000D01*
X160528000Y-127762000D02*
X160782000Y-127508000D01*
X160782000Y-127508000D02*
X169344000Y-127508000D01*
X169344000Y-127508000D02*
X169926000Y-128090000D01*
X160528000Y-128778000D02*
X160528000Y-127762000D01*
X138684000Y-128778000D02*
X138684000Y-127762000D01*
X147500000Y-127508000D02*
X148082000Y-128090000D01*
X138938000Y-127508000D02*
X147500000Y-127508000D01*
X138684000Y-127762000D02*
X138938000Y-127508000D01*
X148082000Y-128090000D02*
X148082000Y-128016000D01*
X151384000Y-128090000D02*
X151384000Y-128016000D01*
X151384000Y-128016000D02*
X148082000Y-128016000D01*
X148082000Y-128016000D02*
X148082000Y-128090000D01*
X138684000Y-128778000D02*
X138684000Y-128524000D01*
X147828000Y-127836000D02*
X148082000Y-128090000D01*
X147828000Y-115898000D02*
X148082000Y-116152000D01*
X138684000Y-116840000D02*
X138684000Y-116586000D01*
X148082000Y-116078000D02*
X148082000Y-116152000D01*
X151384000Y-116078000D02*
X148082000Y-116078000D01*
X151384000Y-116152000D02*
X151384000Y-116078000D01*
X148082000Y-116152000D02*
X148082000Y-116078000D01*
X138684000Y-115824000D02*
X138938000Y-115570000D01*
X138938000Y-115570000D02*
X147500000Y-115570000D01*
X147500000Y-115570000D02*
X148082000Y-116152000D01*
X138684000Y-116840000D02*
X138684000Y-115824000D01*
X138684000Y-104902000D02*
X138684000Y-103886000D01*
X147500000Y-103632000D02*
X148082000Y-104214000D01*
X138938000Y-103632000D02*
X147500000Y-103632000D01*
X138684000Y-103886000D02*
X138938000Y-103632000D01*
X148082000Y-104214000D02*
X148082000Y-104140000D01*
X151384000Y-104214000D02*
X151384000Y-104140000D01*
X151384000Y-104140000D02*
X148082000Y-104140000D01*
X148082000Y-104140000D02*
X148082000Y-104214000D01*
X138684000Y-104902000D02*
X138684000Y-104648000D01*
X147828000Y-103960000D02*
X148082000Y-104214000D01*
X188648000Y-134366000D02*
X195072000Y-134366000D01*
X195072000Y-130990000D02*
X195072000Y-134366000D01*
X195072000Y-119052000D02*
X195072000Y-122428000D01*
X188648000Y-122428000D02*
X195072000Y-122428000D01*
X188648000Y-110490000D02*
X195072000Y-110490000D01*
X195072000Y-107114000D02*
X195072000Y-110490000D01*
X173228000Y-107114000D02*
X173228000Y-110490000D01*
X166804000Y-110490000D02*
X173228000Y-110490000D01*
X166804000Y-122428000D02*
X173228000Y-122428000D01*
X173228000Y-119052000D02*
X173228000Y-122428000D01*
X173228000Y-130990000D02*
X173228000Y-134366000D01*
X166804000Y-134366000D02*
X173228000Y-134366000D01*
X144960000Y-134366000D02*
X151384000Y-134366000D01*
X151384000Y-130990000D02*
X151384000Y-134366000D01*
X151384000Y-119052000D02*
X151384000Y-122428000D01*
X144960000Y-122428000D02*
X151384000Y-122428000D01*
X144960000Y-110490000D02*
X151384000Y-110490000D01*
X151384000Y-107114000D02*
X151384000Y-110490000D01*
M02*
