G04 #@! TF.FileFunction,Paste,Top*
%FSLAX46Y46*%
G04 Gerber Fmt 4.6, Leading zero omitted, Abs format (unit mm)*
G04 Created by KiCad (PCBNEW 4.0.7) date 09/28/17 16:14:06*
%MOMM*%
%LPD*%
G01*
G04 APERTURE LIST*
%ADD10C,0.100000*%
%ADD11R,2.200000X2.100000*%
%ADD12R,1.300000X2.100000*%
%ADD13R,1.700000X0.900000*%
%ADD14R,0.900000X1.700000*%
G04 APERTURE END LIST*
D10*
D11*
X186068000Y-129794000D03*
D12*
X188328000Y-129794000D03*
D13*
X195072000Y-128090000D03*
X195072000Y-130990000D03*
D14*
X188648000Y-134366000D03*
X185748000Y-134366000D03*
D13*
X191770000Y-130990000D03*
X191770000Y-128090000D03*
X191770000Y-119052000D03*
X191770000Y-116152000D03*
D14*
X188648000Y-122428000D03*
X185748000Y-122428000D03*
D13*
X195072000Y-116152000D03*
X195072000Y-119052000D03*
D11*
X186068000Y-117856000D03*
D12*
X188328000Y-117856000D03*
D11*
X186068000Y-105918000D03*
D12*
X188328000Y-105918000D03*
D13*
X195072000Y-104214000D03*
X195072000Y-107114000D03*
D14*
X188648000Y-110490000D03*
X185748000Y-110490000D03*
D13*
X191770000Y-107114000D03*
X191770000Y-104214000D03*
X169926000Y-107114000D03*
X169926000Y-104214000D03*
D14*
X166804000Y-110490000D03*
X163904000Y-110490000D03*
D13*
X173228000Y-104214000D03*
X173228000Y-107114000D03*
D11*
X164224000Y-105918000D03*
D12*
X166484000Y-105918000D03*
D11*
X164224000Y-117856000D03*
D12*
X166484000Y-117856000D03*
D13*
X173228000Y-116152000D03*
X173228000Y-119052000D03*
D14*
X166804000Y-122428000D03*
X163904000Y-122428000D03*
D13*
X169926000Y-119052000D03*
X169926000Y-116152000D03*
X169926000Y-130990000D03*
X169926000Y-128090000D03*
D14*
X166804000Y-134366000D03*
X163904000Y-134366000D03*
D13*
X173228000Y-128090000D03*
X173228000Y-130990000D03*
D11*
X164224000Y-129794000D03*
D12*
X166484000Y-129794000D03*
D11*
X142380000Y-129794000D03*
D12*
X144640000Y-129794000D03*
D13*
X151384000Y-128090000D03*
X151384000Y-130990000D03*
D14*
X144960000Y-134366000D03*
X142060000Y-134366000D03*
D13*
X148082000Y-130990000D03*
X148082000Y-128090000D03*
X148082000Y-119052000D03*
X148082000Y-116152000D03*
D14*
X144960000Y-122428000D03*
X142060000Y-122428000D03*
D13*
X151384000Y-116152000D03*
X151384000Y-119052000D03*
D11*
X142380000Y-117856000D03*
D12*
X144640000Y-117856000D03*
D11*
X142380000Y-105918000D03*
D12*
X144640000Y-105918000D03*
D13*
X151384000Y-104214000D03*
X151384000Y-107114000D03*
D14*
X144960000Y-110490000D03*
X142060000Y-110490000D03*
D13*
X148082000Y-107114000D03*
X148082000Y-104214000D03*
M02*
